<svg width="334" height="334" viewBox="0 0 334 334" fill="none" xmlns="http://www.w3.org/2000/svg">
<g clip-path="url(#clip0)">
<path d="M334 167C334.026 188.453 329.907 209.709 321.87 229.6C321.85 229.645 321.835 229.684 321.816 229.729V229.734C316.413 243.053 309.307 255.615 300.674 267.106C299.009 269.329 297.291 271.507 295.521 273.638C294.873 274.419 294.216 275.194 293.559 275.96C290.175 279.888 286.614 283.651 282.877 287.25C282.007 288.09 281.128 288.92 280.239 289.74C280.031 289.933 279.824 290.121 279.616 290.313C275.264 294.29 270.703 298.034 265.955 301.529C262.768 303.886 259.497 306.124 256.142 308.243C255.406 308.713 254.665 309.174 253.919 309.627C252.624 310.417 251.318 311.19 250.001 311.944C248.281 312.932 246.541 313.889 244.778 314.815C244.067 315.195 243.35 315.561 242.634 315.926C241.587 316.465 240.534 316.984 239.472 317.493C239.289 317.582 239.106 317.671 238.923 317.755C238.232 318.091 237.53 318.417 236.829 318.743C227.691 322.957 218.188 326.329 208.438 328.817C208.384 328.832 208.335 328.842 208.28 328.857C207.643 329.02 207.001 329.178 206.358 329.331C205.879 329.449 205.395 329.563 204.911 329.672C204.851 329.691 204.79 329.706 204.728 329.716C203.735 329.949 202.742 330.171 201.739 330.373C201.175 330.492 200.612 330.611 200.049 330.724C199.708 330.798 199.362 330.863 199.021 330.927C198.591 331.011 198.167 331.09 197.737 331.174C197.5 331.223 197.262 331.263 197.02 331.302C196.477 331.401 195.933 331.5 195.395 331.594C194.476 331.752 193.547 331.905 192.623 332.043C191.951 332.147 191.284 332.246 190.612 332.34C189.821 332.454 189.031 332.557 188.235 332.656C188.018 332.691 187.801 332.715 187.583 332.74C187.302 332.775 187.02 332.809 186.738 332.844C186.17 332.913 185.602 332.977 185.029 333.037C184.732 333.071 184.441 333.101 184.144 333.13C183.581 333.19 183.018 333.244 182.455 333.293C181.728 333.363 181.002 333.422 180.271 333.481C179.381 333.55 178.497 333.615 177.603 333.669C177.03 333.704 176.456 333.738 175.878 333.768C174.406 333.847 172.934 333.901 171.451 333.941C170.715 333.96 169.974 333.975 169.233 333.985H169.218C168.482 333.995 167.741 334 167 334C159.489 334.003 151.987 333.501 144.544 332.498C139.084 331.767 133.712 330.775 128.427 329.524C128.214 329.474 128.002 329.425 127.794 329.37C127.261 329.247 126.732 329.114 126.203 328.98C125.734 328.862 125.27 328.738 124.8 328.614C112.703 325.467 101.001 320.96 89.9179 315.18C89.8635 315.151 89.8043 315.121 89.7499 315.091C89.4288 314.923 89.1125 314.76 88.7963 314.587C88.0997 314.222 87.4063 313.85 86.7162 313.471C82.7883 311.312 78.9608 309.003 75.2337 306.544C74.2752 305.916 73.3266 305.279 72.3878 304.632C72.0865 304.424 71.79 304.217 71.4936 304.009C71.1823 303.792 70.871 303.574 70.5647 303.357C69.7494 302.779 68.9391 302.194 68.1338 301.603C64.7987 299.152 61.5625 296.581 58.4251 293.89C47.3045 284.366 37.4778 273.428 29.1951 261.355C26.3047 257.145 23.607 252.801 21.102 248.321C7.21981 223.469 -0.0464185 195.467 -0.000239017 167C-0.000239017 74.7696 74.7693 0 167 0C259.23 0 334 74.7696 334 167Z" fill="#8257E5"/>
<path opacity="0.2" d="M193.853 329.37C194.387 329.247 194.916 329.114 195.444 328.98C195.914 328.862 196.378 328.738 196.848 328.614C196.872 327.631 196.907 326.549 196.941 325.378C197.233 316.208 197.92 301.445 199.54 283.658C199.629 282.704 199.718 281.744 199.807 280.777C200.385 274.75 201.062 268.411 201.872 261.839C201.897 261.622 201.927 261.409 201.951 261.192C202.609 255.866 203.355 250.396 204.195 244.823C204.783 240.925 205.418 236.984 206.102 233C206.151 232.723 206.201 232.441 206.25 232.165C206.448 231.013 206.65 229.867 206.858 228.711C207.436 225.494 208.053 222.258 208.701 219.022C210.978 207.638 213.691 196.185 216.927 185.044C220.215 173.489 224.263 162.165 229.047 151.145C232.757 142.584 237.176 134.349 242.259 126.525C242.333 126.411 242.407 126.302 242.481 126.189C248.978 116.401 256.404 108.095 264.883 101.885L263.124 99.4836C255.001 105.437 247.55 113.359 240.772 123.249C240.737 123.298 240.707 123.343 240.673 123.392C235.575 130.951 231.126 138.928 227.372 147.237C222.346 158.35 218.106 169.803 214.684 181.511C211.443 192.391 208.536 204.178 205.963 216.873C205.059 221.344 204.196 225.926 203.374 230.618C203.236 231.419 203.098 232.219 202.959 233.024C202.959 233.034 202.954 233.049 202.954 233.059C202.742 234.294 202.539 235.529 202.332 236.779C201.818 239.927 201.334 243.049 200.879 246.147C200.178 250.92 199.544 255.61 198.977 260.219C198.789 261.74 198.608 263.251 198.434 264.749C198.187 266.864 197.953 268.951 197.732 271.009C197.421 273.875 197.136 276.68 196.877 279.424L196.803 280.18C196.764 280.614 196.724 281.049 196.685 281.479C194.679 303.115 194.051 320.591 193.853 329.37Z" fill="black"/>
<path opacity="0.2" d="M231.73 315.18C231.784 315.151 231.843 315.121 231.898 315.091C232.916 314.563 233.924 314.024 234.931 313.471C235.262 309.528 235.707 305.195 236.29 300.64C236.414 299.701 236.537 298.747 236.676 297.789C236.745 297.275 236.819 296.756 236.893 296.232C237.476 292.22 238.168 288.08 238.998 283.92C242.372 266.943 247.975 249.591 257.279 238.879C257.778 238.301 258.287 237.748 258.815 237.209C260.126 235.848 261.549 234.6 263.069 233.479L261.311 231.083C259.188 232.653 257.234 234.439 255.48 236.414C254.863 237.1 254.26 237.815 253.672 238.558C245.11 249.334 239.764 265.288 236.434 281.084C235.564 285.204 234.833 289.32 234.21 293.327C234.052 294.375 233.901 295.412 233.756 296.44C232.792 303.229 232.155 309.642 231.73 315.18Z" fill="black"/>
<path opacity="0.2" d="M281.498 101.816C289.708 101.816 296.364 95.1599 296.364 86.9495C296.364 78.7391 289.708 72.0833 281.498 72.0833C273.287 72.0833 266.632 78.7391 266.632 86.9495C266.632 95.1599 273.287 101.816 281.498 101.816Z" fill="black"/>
<path opacity="0.2" d="M276.71 229.788C284.921 229.788 291.577 223.132 291.577 214.922C291.577 206.711 284.921 200.055 276.71 200.055C268.5 200.055 261.844 206.711 261.844 214.922C261.844 223.132 268.5 229.788 276.71 229.788Z" fill="black"/>
<path opacity="0.2" d="M222.478 111.92C225.631 129.706 218.672 145.811 218.672 145.811C218.672 145.811 206.601 133.079 203.449 115.293C200.296 97.5076 207.256 81.403 207.256 81.403C207.256 81.403 219.326 94.1347 222.478 111.92Z" fill="black"/>
<path opacity="0.2" d="M271.885 154.14C254.921 160.343 237.874 156.362 237.874 156.362C237.874 156.362 248.332 142.324 265.296 136.12C282.26 129.917 299.307 133.898 299.307 133.898C299.307 133.898 288.849 147.936 271.885 154.14Z" fill="black"/>
<path opacity="0.2" d="M274.762 267.463C262.871 271.811 250.906 268.975 250.906 268.975C250.906 268.975 258.219 259.089 270.11 254.741C282 250.393 293.966 253.23 293.966 253.23C293.966 253.23 286.652 263.115 274.762 267.463Z" fill="black"/>
<path d="M217.377 264.962L217.979 265.273C217.92 265.915 217.777 266.311 217.377 264.962Z" fill="#2F2E41"/>
<path d="M218.172 265.169C218.177 265.238 218.187 265.313 218.192 265.382L217.979 265.273C217.984 265.209 217.989 265.14 217.999 265.071C218.049 264.206 217.989 263.183 218.172 265.169Z" fill="#2F2E41"/>
<path d="M153.997 241.532C198.806 241.532 235.13 205.208 235.13 160.4C235.13 115.591 198.806 79.2666 153.997 79.2666C109.189 79.2666 72.8643 115.591 72.8643 160.4C72.8643 205.208 109.189 241.532 153.997 241.532Z" fill="#D0CDE1"/>
<path d="M160.676 238.226C187.812 238.226 209.81 216.228 209.81 189.092C209.81 161.956 187.812 139.958 160.676 139.958C133.54 139.958 111.542 161.956 111.542 189.092C111.542 216.228 133.54 238.226 160.676 238.226Z" fill="#2F2E41"/>
<path d="M272.867 283.263L272.808 283.277L261.38 286.02L237.585 291.731L234.339 292.512L198.152 301.193L195.079 301.934L107.285 323.002C101.35 320.732 95.5515 318.12 89.9181 315.18C89.8638 315.151 89.8045 315.121 89.7501 315.091C89.429 314.923 89.1128 314.76 88.7966 314.588C88.0999 314.222 87.4066 313.85 86.7165 313.471C82.7885 311.312 78.961 309.003 75.234 306.544C74.2755 305.916 73.3268 305.279 72.3881 304.632C72.0867 304.424 71.7902 304.217 71.4938 304.009C71.1825 303.792 70.8712 303.574 70.5649 303.357C69.7497 302.779 68.9394 302.194 68.134 301.603C76.6619 286.104 96.9687 275.802 117.275 270.164C132.602 265.906 135.972 251.908 135.68 239.452C135.606 236.611 135.365 233.777 134.959 230.964C134.34 226.487 133.355 222.068 132.014 217.752L181.151 219.393L186.22 231.073C186.081 232.356 186.037 233.647 186.086 234.936C186.472 244.517 192.386 250.712 199.684 254.71C200.632 255.228 201.606 255.713 202.594 256.162C214.56 261.602 228.647 261.973 228.647 261.973C232.936 261.498 237.269 261.58 241.537 262.215C242.575 262.373 243.583 262.562 244.561 262.783C250.273 264.059 255.669 266.474 260.426 269.883C262.243 271.176 263.962 272.601 265.57 274.147C268.426 276.82 270.884 279.89 272.867 283.263Z" fill="#2F2E41"/>
<path d="M280.239 289.74C280.031 289.933 279.824 290.12 279.616 290.313C275.264 294.29 270.704 298.034 265.955 301.529C262.768 303.886 259.497 306.124 256.142 308.243C255.406 308.713 254.665 309.174 253.919 309.627C252.625 310.417 251.319 311.19 250.001 311.944C248.282 312.932 246.541 313.889 244.779 314.815C244.067 315.195 243.351 315.561 242.634 315.926C241.587 316.465 240.534 316.984 239.472 317.493C239.289 317.582 239.106 317.671 238.924 317.755L236.834 316.02L261.38 286.02L266.316 279.987C266.316 279.987 268.287 279.987 272.808 283.277C275.307 285.137 277.668 287.175 279.873 289.374C279.992 289.498 280.115 289.617 280.239 289.74Z" fill="#D0CDE1"/>
<path d="M279.893 289.404C279.827 289.714 279.734 290.019 279.616 290.313C275.264 294.29 270.704 298.034 265.955 301.529C261.835 303.014 257.56 304.03 253.213 304.558C253.213 304.558 253.583 306.415 253.919 309.627C252.625 310.417 251.319 311.19 250.001 311.944C248.282 312.932 246.541 313.889 244.779 314.815C244.067 315.195 243.351 315.561 242.634 315.926C241.587 316.465 240.534 316.984 239.472 317.493C239.289 317.582 239.106 317.671 238.924 317.755C238.232 318.091 237.53 318.417 236.829 318.743C227.691 322.957 218.189 326.329 208.439 328.817C208.384 328.832 208.335 328.842 208.281 328.857C207.643 329.02 207.001 329.178 206.359 329.331C205.879 329.45 205.395 329.563 204.911 329.672C204.851 329.691 204.79 329.706 204.728 329.716C203.735 329.949 202.742 330.171 201.739 330.373C201.176 330.492 200.612 330.611 200.049 330.724C199.708 330.798 199.362 330.863 199.022 330.927C198.592 331.011 198.167 331.09 197.737 331.174C197.5 331.223 197.263 331.263 197.02 331.302C196.477 331.401 195.933 331.5 195.395 331.594C194.476 331.752 193.547 331.905 192.623 332.043C191.951 332.147 191.284 332.246 190.612 332.34C189.822 332.454 189.031 332.557 188.236 332.656C188.018 332.691 187.801 332.715 187.583 332.74C187.302 332.775 187.02 332.809 186.739 332.844C186.17 332.913 185.602 332.977 185.029 333.037C184.733 333.071 184.441 333.101 184.145 333.13C183.581 333.19 183.018 333.244 182.455 333.293C181.729 333.363 181.002 333.422 180.271 333.481C179.382 333.55 178.497 333.615 177.603 333.669C177.03 333.704 176.457 333.738 175.879 333.768C174.406 333.847 172.934 333.901 171.452 333.941C170.716 333.96 169.974 333.975 169.233 333.985H169.218C168.482 333.995 167.741 334 167 334C159.489 334.003 151.987 333.501 144.544 332.498C139.084 331.767 133.712 330.775 128.427 329.524C128.214 329.474 128.002 329.425 127.795 329.37C127.261 329.247 126.732 329.114 126.204 328.98C125.734 328.862 125.27 328.738 124.8 328.614C112.703 325.467 101.002 320.96 89.9181 315.18C89.8638 315.151 89.8045 315.121 89.7501 315.091C89.429 314.923 89.1128 314.76 88.7966 314.588C115.917 308.268 158.774 298.303 195.963 289.765C197.006 289.528 198.042 289.29 199.071 289.053C212.806 285.901 225.672 282.966 236.557 280.511C237.684 280.259 238.787 280.012 239.867 279.769C251.562 277.141 260.644 275.145 265.57 274.147C266.897 273.843 268.24 273.608 269.591 273.44L279.873 289.374L279.893 289.404Z" fill="#D0CDE1"/>
<path d="M79.7692 125.875C93.1164 125.875 103.936 115.055 103.936 101.708C103.936 88.3605 93.1164 77.5404 79.7692 77.5404C66.422 77.5404 55.602 88.3605 55.602 101.708C55.602 115.055 66.422 125.875 79.7692 125.875Z" fill="#2F2E41"/>
<path d="M228.225 118.97C241.572 118.97 252.392 108.15 252.392 94.8027C252.392 81.4555 241.572 70.6355 228.225 70.6355C214.878 70.6355 204.058 81.4555 204.058 94.8027C204.058 108.15 214.878 118.97 228.225 118.97Z" fill="#2F2E41"/>
<path d="M202.332 84.4453C202.332 78.4847 204.536 72.7347 208.519 68.3002C212.502 63.8656 217.983 61.0595 223.91 60.421C220.535 60.0523 217.12 60.3989 213.888 61.4382C210.655 62.4774 207.679 64.186 205.151 66.4526C202.623 68.7192 200.602 71.493 199.217 74.5931C197.833 77.6933 197.118 81.0503 197.118 84.4453C197.118 87.8404 197.833 91.1974 199.217 94.2976C200.602 97.3977 202.623 100.171 205.151 102.438C207.679 104.705 210.655 106.413 213.888 107.453C217.12 108.492 220.535 108.838 223.91 108.47C217.983 107.831 212.502 105.025 208.519 100.591C204.536 96.156 202.332 90.406 202.332 84.4453V84.4453Z" fill="#2F2E41"/>
<path d="M52.7661 121.256C48.5951 116.998 46.1448 111.349 45.8862 105.394C45.6276 99.4386 47.5789 93.5981 51.3651 88.9944C48.6964 91.0931 46.4998 93.7306 44.9185 96.7349C43.3372 99.7393 42.4067 103.043 42.1875 106.431C41.9683 109.819 42.4655 113.215 43.6466 116.398C44.8276 119.581 46.6661 122.48 49.0421 124.905C51.4182 127.33 54.2786 129.227 57.4369 130.473C60.5951 131.718 63.9805 132.285 67.3722 132.135C70.764 131.985 74.0861 131.122 77.122 129.602C80.158 128.082 82.8397 125.94 84.9924 123.315C80.3125 127.006 74.4334 128.838 68.4849 128.458C62.5364 128.078 56.9382 125.513 52.7661 121.256V121.256Z" fill="#2F2E41"/>
<path d="M153.997 122.422C125.396 122.422 102.21 135.947 102.21 152.631C102.21 160.097 106.871 166.919 114.564 172.19L124.533 164.966L121.822 176.283C122.947 176.804 124.096 177.309 125.294 177.775L140.187 160.4V181.746C144.754 182.477 149.372 182.843 153.997 182.841C182.598 182.841 205.784 169.315 205.784 152.631C205.784 135.947 182.598 122.422 153.997 122.422Z" fill="#D0CDE1"/>
<path d="M204.058 94.8027C204.058 94.8027 200.304 112.065 223.759 118.97L204.058 94.8027Z" fill="#2F2E41"/>
<path d="M102.21 97.9446C102.21 97.9446 110.841 117.244 84.9479 125.875L102.21 97.9446Z" fill="#2F2E41"/>
<path d="M115.01 208.381C117.188 207.772 117.767 203.041 116.304 197.815C114.841 192.588 111.89 188.846 109.712 189.456C107.534 190.065 106.955 194.796 108.418 200.022C109.881 205.249 112.833 208.991 115.01 208.381Z" fill="#2F2E41"/>
<path d="M214.715 190.981C215.049 185.564 213.49 181.06 211.233 180.921C208.976 180.782 206.875 185.061 206.542 190.478C206.208 195.895 207.768 200.399 210.025 200.538C212.282 200.677 214.382 196.398 214.715 190.981Z" fill="#2F2E41"/>
</g>
<defs>
<clipPath id="clip0">
<rect width="334" height="334" fill="white"/>
</clipPath>
</defs>
</svg>
