<svg width="334" height="334" viewBox="0 0 334 334" fill="none" xmlns="http://www.w3.org/2000/svg">
<path d="M334 167C334.026 188.453 329.907 209.709 321.87 229.6C321.85 229.645 321.835 229.684 321.816 229.729V229.734C316.413 243.053 309.307 255.615 300.674 267.106C299.009 269.329 297.291 271.507 295.521 273.638C294.873 274.419 294.216 275.194 293.559 275.96C290.175 279.888 286.614 283.651 282.877 287.25C282.007 288.09 281.128 288.92 280.239 289.74C280.031 289.933 279.824 290.121 279.616 290.313C275.264 294.29 270.703 298.034 265.955 301.529C262.768 303.886 259.497 306.124 256.142 308.243C255.406 308.713 254.665 309.174 253.919 309.627C252.624 310.417 251.318 311.19 250.001 311.944C248.281 312.932 246.541 313.889 244.778 314.815C244.067 315.195 243.35 315.561 242.634 315.926C241.587 316.465 240.534 316.984 239.472 317.493C239.289 317.582 239.106 317.671 238.923 317.755C238.232 318.091 237.53 318.417 236.829 318.743C227.691 322.957 218.188 326.329 208.438 328.817C208.384 328.832 208.335 328.842 208.28 328.857C207.643 329.02 207.001 329.178 206.358 329.331C205.879 329.449 205.395 329.563 204.911 329.672C204.851 329.691 204.79 329.706 204.728 329.716C203.735 329.949 202.742 330.171 201.739 330.373C201.175 330.492 200.612 330.611 200.049 330.724C199.708 330.798 199.362 330.863 199.021 330.927C198.591 331.011 198.167 331.09 197.737 331.174C197.5 331.223 197.262 331.263 197.02 331.302C196.477 331.401 195.933 331.5 195.395 331.594C194.476 331.752 193.547 331.905 192.623 332.043C191.951 332.147 191.284 332.246 190.612 332.34C189.821 332.454 189.031 332.557 188.235 332.656C188.018 332.691 187.801 332.715 187.583 332.74C187.302 332.775 187.02 332.809 186.738 332.844C186.17 332.913 185.602 332.977 185.029 333.037C184.732 333.071 184.441 333.101 184.144 333.13C183.581 333.19 183.018 333.244 182.455 333.293C181.728 333.363 181.002 333.422 180.271 333.481C179.381 333.55 178.497 333.615 177.603 333.669C177.03 333.704 176.456 333.738 175.878 333.768C174.406 333.847 172.934 333.901 171.451 333.941C170.715 333.96 169.974 333.975 169.233 333.985H169.218C168.482 333.995 167.741 334 167 334C159.489 334.003 151.987 333.501 144.544 332.498C139.084 331.767 133.712 330.775 128.427 329.524C128.214 329.474 128.002 329.425 127.794 329.37C127.261 329.247 126.732 329.114 126.203 328.98C125.734 328.862 125.27 328.738 124.8 328.614C112.703 325.467 101.001 320.96 89.9179 315.18C89.8635 315.151 89.8043 315.121 89.7499 315.091C89.4288 314.923 89.1125 314.76 88.7963 314.587C88.0997 314.222 87.4063 313.85 86.7162 313.471C82.7883 311.312 78.9608 309.003 75.2337 306.544C74.2752 305.916 73.3266 305.279 72.3878 304.632C72.0865 304.424 71.79 304.217 71.4936 304.009C71.1823 303.792 70.871 303.574 70.5647 303.357C69.7494 302.779 68.9391 302.194 68.1338 301.603C64.7987 299.152 61.5625 296.581 58.4251 293.89C47.3045 284.366 37.4778 273.428 29.1951 261.355C26.3047 257.145 23.607 252.801 21.102 248.321C7.21981 223.469 -0.0464185 195.467 -0.000239017 167C-0.000239017 74.7696 74.7693 0 167 0C259.23 0 334 74.7696 334 167Z" fill="#8257E5"/>
</svg>
